<svg xmlns="http://www.w3.org/2000/svg" version="1.1" xmlns:xlink="http://www.w3.org/1999/xlink" xmlns:svgjs="http://svgjs.dev/svgjs" style="overflow: hidden; height: 85vh;" viewBox="0 0 2560 1440" class="overflow-hidden rounded-md drop-shadow-lg transition duration-300"><rect width="2560" height="1440" fill="#151515"/><g clip-path="url(&quot;#SvgjsClipPath3710&quot;)"><g transform="matrix(0.02007026740287588,1.14982484942985,-1.14982484942985,0.02007026740287588,2068.459279127853,-750.1222177297757)"><path d="M0,-1440C-4.633075523086659,-1330.8107705341308,-30.616281119687553,-994.4438724040178,-27.798453138519953,-784.8646232047853C-24.980625157352353,-575.2853740055527,4.027092090596767,-375.87969076259844,16.906967887005607,-182.52450480460473C29.786843683414446,10.83068115338898,42.233916805600494,181.72708725566318,49.48080163993308,375.26649254317704C56.72768647426566,568.8058978306909,62.93226495170361,777.3242441573977,60.38827689300112,978.7119269204783C57.84428883429863,1180.0996096835588,36.67855123191882,1372.91152404402,34.21687328771816,1583.5925891216605C31.755195343517503,1794.2736541993008,51.32102144241687,2026.7304155732643,45.61820922779718,2242.798317386321C39.91539701317749,2458.8662191993776,7.60303487129953,2773.7997195643866,0,2880L 2560 2880 L 2560 -1440 Z" fill="url(&quot;#SvgjsLinearGradient3698&quot;)"/><path d="M213.33333333333331,-1440C217.54814588593322,-1329.6120455818016,229.12151878368738,-1011.2509328907552,238.6222086489328,-777.6722734908088C248.12289851417822,-544.0936140908625,268.3482375461951,-280.2569203653824,270.3374725248059,-38.52804360032188C272.3267075034167,203.2008331647387,253.32629057988055,425.2743081783864,250.55761852059746,672.7009870995546C247.78894646131437,920.1276660207228,269.2490112029565,1191.0401487631011,253.72544016910734,1446.0320299266873C238.20186913525816,1701.0239110902735,164.14821012346474,1963.657612402186,157.4161923175024,2202.6522740810715C150.68417451154008,2441.646935759957,204.01380983069484,2767.108712346845,213.33333333333331,2880L 2560 2880 L 2560 -1440 Z" fill="url(&quot;#SvgjsLinearGradient3699&quot;)"/><path d="M426.66666666666663,-1440C429.89101120468587,-1346.4701121813448,439.7532128397847,-1061.628251692685,446.01273389478195,-878.8206730880694C452.2722549497792,-696.013094483454,474.32679055299525,-526.4902238036674,464.2237929966502,-343.1545283723075C454.1207954403052,-159.81883294094757,388.62823191446415,50.4398762341869,385.39474855671165,221.19349950009016C382.16126519895914,391.9471227659934,431.3733375538678,510.1905458788666,444.82289285013513,681.367211223112C458.27244814640244,852.5438765673574,475.3651347556898,1057.6269389259594,466.09208033431537,1248.2534915655624C456.81902591294096,1438.8800442051654,401.91794026367745,1646.541777916782,389.18456632188855,1825.1265270607296C376.45119238009966,2003.7112762046772,383.4448199594523,2143.9497409393693,389.6918366835819,2319.761986429248C395.9388534077116,2495.5742319191263,420.5041950028192,2786.626997738208,426.66666666666663,2880L 2560 2880 L 2560 -1440 Z" fill="url(&quot;#SvgjsLinearGradient3700&quot;)"/><path d="M640,-1440C633.3190475897978,-1312.1097526015196,592.7691308503422,-921.9659346772163,599.914285538787,-672.6585156091185C607.0594402272318,-423.35109654102064,683.3775571684164,-176.46294466561687,682.870928130669,55.84451440858672C682.3642990929216,288.1519734827903,597.6626219417653,486.0848364450327,596.8745113123023,721.1862388361031C596.0864006828392,956.2876412271736,679.6882054667407,1221.2538436068248,678.1422643538905,1466.4529287550092C676.5963232410403,1711.6520139031936,593.955908694183,1956.7895711843782,587.5988646352013,2192.38074972521C581.2418205762195,2427.9719282660417,631.2664774392002,2765.3967916208685,640,2880L 2560 2880 L 2560 -1440 Z" fill="url(&quot;#SvgjsLinearGradient3701&quot;)"/><path d="M853.3333333333333,-1440C850.2159827306093,-1315.9383435375034,834.6306998445457,-940.6076462470766,834.6292297169895,-695.6300612250213C834.6277595894333,-450.6524762029661,852.0795708315615,-196.04203620997967,853.324512567996,29.86551013233165C854.5694543044305,255.77305647464297,834.842669380091,431.84585034806173,842.0988801355967,659.8152168288466C849.3550908911023,887.7845833096314,893.2534977255199,1150.5298276835956,896.8617771010302,1397.6817090170405C900.4700564765404,1644.8335903504853,871.0032970166077,1895.6734563323557,863.7485563886582,2142.7265048295158C856.4938157607088,2389.779553326676,855.0692038425541,2757.1210841382526,853.3333333333333,2880L 2560 2880 L 2560 -1440 Z" fill="url(&quot;#SvgjsLinearGradient3702&quot;)"/><path d="M1066.6666666666667,-1440C1067.8308322813446,-1346.6800488879715,1070.9399507345843,-1096.6598686344898,1073.6516603547334,-880.080293327829C1076.3633699748825,-663.5007180211684,1083.9677781746843,-358.76541783174986,1082.9369243875608,-140.52254816003568C1081.9060706004373,77.72032151167849,1059.8508228427447,236.9763899875356,1067.4665376319927,429.376924702456C1075.0822524212406,621.7774594173763,1123.7119008731142,819.4360479953141,1128.631213123048,1013.8806601294866C1133.5505253729816,1208.3252722636591,1096.6256908279631,1386.7797935916062,1096.9824111315952,1596.0445975074913C1097.3391314352273,1805.3094014233764,1135.8241590223283,2055.4769165427124,1130.7715349448401,2269.4694836247972C1125.718910867352,2483.462050706882,1077.3508113796956,2778.244913937466,1066.6666666666667,2880L 2560 2880 L 2560 -1440 Z" fill="url(&quot;#SvgjsLinearGradient3703&quot;)"/><path d="M1280,-1440C1282.8002635026469,-1294.022294201962,1297.5979459793898,-859.9547522542948,1296.8015810158806,-564.1337652117722C1296.0052160523715,-268.3127781692497,1274.790535872008,41.00853688856148,1275.221810218945,334.92592225513494C1275.653084565882,628.8433076217084,1295.1754630596215,915.1412006906785,1299.3892270975027,1199.3705469876684C1303.602991135384,1483.5998932846583,1303.7359322958164,1760.1970912016852,1300.5043944462327,2040.3020000370739C1297.272856596649,2320.4069088724623,1283.417399074372,2740.0503333395122,1280,2880L 2560 2880 L 2560 -1440 Z" fill="url(&quot;#SvgjsLinearGradient3704&quot;)"/><path d="M1493.3333333333335,-1440C1485.9678258354559,-1313.7631583248697,1439.9011714738829,-914.5057756215975,1449.1402883460678,-682.5789499492181C1458.3794052182527,-450.65212427683866,1533.9752384281248,-291.7577078560652,1548.7680345664435,-48.43904596572369C1563.560830704762,194.87961592461784,1553.0014071613325,534.0285763455993,1537.8970651759796,777.3330213928309C1522.7927231906267,1020.6374664400626,1458.194798399621,1181.926738921442,1458.1419826543256,1411.3876243176665C1458.0891669090302,1640.848509713891,1531.714945591039,1909.3296044897888,1537.580170704207,2154.0983337701778C1543.445395817375,2398.8670630505667,1500.707806228479,2759.016388961696,1493.3333333333335,2880L 2560 2880 L 2560 -1440 Z" fill="url(&quot;#SvgjsLinearGradient3705&quot;)"/><path d="M1706.6666666666665,-1440C1701.021043846204,-1310.130376986145,1667.145214475842,-900.0180655254165,1672.792929743892,-660.78226191687C1678.440645011942,-421.5464583083234,1727.6884245048047,-223.93751094082086,1740.5529582749666,-4.585178348720248C1753.4174920451285,214.7671542433804,1748.888944722852,413.3156633830347,1749.9801323648635,655.3317336357336C1751.0713200068749,897.3478038884325,1751.2937158490765,1204.709500249712,1747.1000841270345,1447.5112431674731C1742.9064524049925,1690.3129860852343,1731.557244942673,1873.3940650035468,1724.8183420326116,2112.1421911423013C1718.0794391225502,2350.8903172810556,1709.691945894324,2752.023698523717,1706.6666666666665,2880L 2560 2880 L 2560 -1440 Z" fill="url(&quot;#SvgjsLinearGradient3706&quot;)"/><path d="M1920,-1440C1919.3330783367992,-1332.791286644215,1908.7945449945692,-1009.9364354558486,1915.9984700207947,-796.7477198652896C1923.2023950470202,-583.5590042747306,1967.4470068584878,-355.0980626440693,1963.2235501573534,-160.86770645664586C1959.000093456219,33.36264973077752,1887.8210492109201,165.0001958969238,1890.6577298139882,368.6344172592508C1893.4944104170563,572.2686386215778,1981.5997208742308,837.2168143698603,1980.2436337757617,1060.9376217173162C1978.8875466772927,1284.658429064772,1896.6122430928526,1511.2128575393106,1882.5212072231736,1710.9592613439859C1868.4301713534946,1910.7056651486612,1889.450953094884,2064.5759214360323,1895.6974185576883,2259.416044545368C1901.9438840204925,2454.256167654704,1915.9495697596146,2776.5693407575613,1920,2880L 2560 2880 L 2560 -1440 Z" fill="url(&quot;#SvgjsLinearGradient3707&quot;)"/><path d="M2133.3333333333335,-1440C2127.0613875341755,-1329.816376484725,2098.8489835084843,-979.7369935757091,2095.701658538386,-778.8982589083505C2092.5543335682873,-578.0595242409919,2102.357361708405,-424.2671662297988,2114.4493835127428,-234.96759199584812C2126.5414053170807,-45.66801776189746,2166.8436036446797,143.81805553378993,2168.253789364414,356.89918649535343C2169.663975084148,569.980317456917,2118.248238978527,817.8904547637378,2122.9104978311484,1043.5191937735328C2127.57275668377,1269.1479327833279,2185.210981242866,1507.45888594478,2196.227342480143,1710.6716205541234C2207.2437037174195,1913.8843551634668,2199.491000112611,2067.9075381886146,2189.0086652548093,2262.795601429594C2178.5263303970078,2457.6836646705738,2142.612555320246,2777.1326002382657,2133.3333333333335,2880L 2560 2880 L 2560 -1440 Z" fill="url(&quot;#SvgjsLinearGradient3708&quot;)"/><path d="M2346.6666666666665,-1440C2338.8938568936087,-1329.026431024129,2296.270109091256,-970.4878840127733,2300.029808028319,-774.1585861447733C2303.7895069653823,-577.8292882767732,2351.300122628032,-460.86263577936074,2369.224860289046,-262.0242127920002C2387.1495979500596,-63.185789804639654,2402.6883732681654,213.60982800350484,2407.5782339944017,418.87195177939C2412.468094720638,624.1340755552751,2410.450118829774,772.7545172390295,2398.5640246464627,969.5485298633106C2386.6779304631514,1166.3425424875916,2336.9078596615627,1382.7911314042897,2336.261668894534,1599.6360275250763C2335.6154781275054,1816.480923645863,2392.9527137489354,2057.2239111755434,2394.686880044291,2270.6179065880306C2396.421046339646,2484.0119020005177,2354.6700355629373,2778.436317764672,2346.6666666666665,2880L 2560 2880 L 2560 -1440 Z" fill="url(&quot;#SvgjsLinearGradient3709&quot;)"/></g></g><defs><linearGradient x1="0.1" y1="0" x2="0" y2="1" id="SvgjsLinearGradient3698"><stop stop-color="#151515" offset="0"/><stop stop-color="#151515" offset="0"/></linearGradient><linearGradient x1="0.1" y1="0" x2="0" y2="1" id="SvgjsLinearGradient3699"><stop stop-color="#131313" offset="0"/><stop stop-color="#131313" offset="0.08333333333333333"/></linearGradient><linearGradient x1="0.1" y1="0" x2="0" y2="1" id="SvgjsLinearGradient3700"><stop stop-color="#111111" offset="0"/><stop stop-color="#111111" offset="0.16666666666666666"/></linearGradient><linearGradient x1="0.1" y1="0" x2="0" y2="1" id="SvgjsLinearGradient3701"><stop stop-color="#101010" offset="0"/><stop stop-color="#101010" offset="0.25"/></linearGradient><linearGradient x1="0.1" y1="0" x2="0" y2="1" id="SvgjsLinearGradient3702"><stop stop-color="#0e0e0e" offset="0"/><stop stop-color="#0e0e0e" offset="0.3333333333333333"/></linearGradient><linearGradient x1="0.1" y1="0" x2="0" y2="1" id="SvgjsLinearGradient3703"><stop stop-color="#0c0c0c" offset="0"/><stop stop-color="#0c0c0c" offset="0.4166666666666667"/></linearGradient><linearGradient x1="0.1" y1="0" x2="0" y2="1" id="SvgjsLinearGradient3704"><stop stop-color="#0a0a0a" offset="0"/><stop stop-color="#0a0a0a" offset="0.5"/></linearGradient><linearGradient x1="0.1" y1="0" x2="0" y2="1" id="SvgjsLinearGradient3705"><stop stop-color="#090909" offset="0"/><stop stop-color="#090909" offset="0.5833333333333334"/></linearGradient><linearGradient x1="0.1" y1="0" x2="0" y2="1" id="SvgjsLinearGradient3706"><stop stop-color="#070707" offset="0"/><stop stop-color="#070707" offset="0.6666666666666666"/></linearGradient><linearGradient x1="0.1" y1="0" x2="0" y2="1" id="SvgjsLinearGradient3707"><stop stop-color="#050505" offset="0"/><stop stop-color="#050505" offset="0.75"/></linearGradient><linearGradient x1="0.1" y1="0" x2="0" y2="1" id="SvgjsLinearGradient3708"><stop stop-color="#030303" offset="0"/><stop stop-color="#030303" offset="0.8333333333333334"/></linearGradient><linearGradient x1="0.1" y1="0" x2="0" y2="1" id="SvgjsLinearGradient3709"><stop stop-color="#020202" offset="0"/><stop stop-color="#020202" offset="0.9166666666666666"/></linearGradient><clipPath id="SvgjsClipPath3710"><rect width="2560" height="1440"/></clipPath></defs></svg>